<?xml version="1.0" encoding="utf-8"?>
<svg viewBox="200 230 100 40" xmlns="http://www.w3.org/2000/svg">
  <path d="M 280.05 240 C 274.55 240 270.05 244.5 270.05 250 C 270.05 255.5 274.55 260 280.05 260 C 285.55 260 290.05 255.5 290.05 250 C 290.05 244.5 285.55 240 280.05 240 Z M 280.05 256 C 276.75 256 274.05 253.3 274.05 250 C 274.05 246.7 276.75 244 280.05 244 C 283.35 244 286.05 246.7 286.05 250 C 286.05 253.3 283.35 256 280.05 256 Z M 237.25 245 L 228.65 245 C 226.95 242 223.65 240 219.95 240 C 214.45 240 209.95 244.5 209.95 250 C 209.95 255.5 214.45 260 219.95 260 C 223.65 260 226.85 258 228.65 255 L 237.25 255 L 242.25 250 L 237.25 245 Z M 220.05 256 C 216.75 256 214.05 253.3 214.05 250 C 214.05 246.7 216.75 244 220.05 244 C 223.35 244 226.05 246.7 226.05 250 C 226.05 253.3 223.35 256 220.05 256 Z M 257.55 237.5 L 250.05 245.1 L 242.55 237.6 L 237.55 242.6 L 245.05 250.1 L 237.55 257.6 L 242.55 262.5 L 250.05 255 L 257.55 262.5 L 262.45 257.6 L 254.95 250 L 262.45 242.5 L 257.55 237.5 Z"/>
</svg>